<svg width="993.7400146484374px" height="151.5199981689453px" xmlns="http://www.w3.org/2000/svg" viewBox="-246.8700073242187 -0.7599990844726534 993.7400146484374 151.5199981689453" style="background: rgba(0, 0, 0, 0);" preserveAspectRatio="xMidYMid"><defs><filter id="editing-hole" x="-100%" y="-100%" width="300%" height="300%"><feFlood flood-color="none" result="black"></feFlood><feMorphology operator="dilate" radius="2" in="SourceGraphic" result="erode"></feMorphology><feGaussianBlur in="erode" stdDeviation="4" result="blur"></feGaussianBlur><feOffset in="blur" dx="2" dy="2" result="offset"></feOffset><feComposite operator="atop" in="offset" in2="black" result="merge"></feComposite><feComposite operator="in" in="merge" in2="SourceGraphic" result="inner-shadow"></feComposite></filter></defs><g filter="url(#editing-hole)"><g transform="translate(-103.9356017112732, 106.12500381469727)"><path d="M37.85 1.66L37.85 1.66L37.85 1.66Q27.22 1.66 26.23-13.45L26.23-13.45L11.95-13.45L11.95-13.45Q10.29-9.63 9.13-6.31L9.13-6.31L6.97 0L-4.65 0L21.50-54.78L39.34-54.78L42.83-14.44L42.83-14.44Q43.66-5.73 46.98-3.15L46.98-3.15L46.98-3.15Q44.57 1.66 37.85 1.66ZM19.09-30.05L14.53-19.51L25.98-19.51L24.98-40.84L24.98-43.08L19.09-30.05ZM111.55 1.66L111.55 1.66L111.55 1.66Q101.51 1.66 101.51-6.14L101.51-6.14L101.51-6.14Q101.51-9.54 102.96-16.14L102.96-16.14L102.96-16.14Q104.41-22.74 104.91-25.40L104.91-25.40L104.91-25.40Q106.07-31.46 106.07-33.37L106.07-33.37L106.07-33.37Q106.07-37.60 102.92-37.60L102.92-37.60L102.92-37.60Q100.84-37.60 98.85-34.74L98.85-34.74L98.85-34.74Q96.86-31.87 95.95-26.15L95.95-26.15L90.80 0L74.62 1.66L79.10-20.92L79.10-20.92Q79.85-24.65 80.51-28.88L80.51-28.88L80.51-28.88Q81.17-33.12 81.17-33.78L81.17-33.78L81.17-33.78Q81.17-37.60 78.35-37.60L78.35-37.60L78.35-37.60Q76.44-37.60 74.37-34.78L74.37-34.78L74.37-34.78Q72.29-31.96 71.13-26.15L71.13-26.15L66.07 0L49.72 1.66L58.43-42.33L71.96-43.99L70.55-35.61L70.55-35.61Q72.71-40.09 76.69-42.04L76.69-42.04L76.69-42.04Q80.68-43.99 86.90-43.99L86.90-43.99L86.90-43.99Q90.47-43.99 92.79-42.25L92.79-42.25L92.79-42.25Q95.12-40.50 95.87-37.68L95.87-37.68L95.87-37.68Q97.28-40.59 100.89-42.29L100.89-42.29L100.89-42.29Q104.50-43.99 108.94-43.99L108.94-43.99L108.94-43.99Q113.38-43.99 115.58-43.04L115.58-43.04L115.58-43.04Q117.78-42.08 119.11-40.50L119.11-40.50L119.11-40.50Q121.35-37.60 121.35-32.29L121.35-32.29L121.35-32.29Q121.35-27.06 119.11-16.19L119.11-16.19L119.11-16.19Q117.94-10.87 117.94-8.92L117.94-8.92L117.94-8.92Q117.94-6.97 119.06-5.81L119.06-5.81L119.06-5.81Q120.18-4.65 121.84-4.48L121.84-4.48L121.84-4.48Q121.01-1.66 118.15 0L118.15 0L118.15 0Q115.29 1.66 111.55 1.66ZM148.16-4.57L148.16-4.57L148.16-4.57Q145.58 1.66 137.37 1.66L137.37 1.66L137.37 1.66Q133.13 1.66 130.48-1.25L130.48-1.25L130.48-1.25Q128.23-3.82 128.23-6.39L128.23-6.39L128.23-6.39Q128.23-13.11 131.31-26.23L131.31-26.23L134.38-42.33L151.23-43.99L146.16-17.76L146.16-17.76Q144.75-11.62 144.75-9.46L144.75-9.46L144.75-9.46Q144.75-4.73 148.16-4.57ZM135.87-53.87L135.87-53.87L135.87-53.87Q135.87-57.10 138.57-58.85L138.57-58.85L138.57-58.85Q141.27-60.59 145.17-60.59L145.17-60.59L145.17-60.59Q149.07-60.59 151.43-58.85L151.43-58.85L151.43-58.85Q153.80-57.10 153.80-53.87L153.80-53.87L153.80-53.87Q153.80-50.63 151.18-48.97L151.18-48.97L151.18-48.97Q148.57-47.31 144.67-47.31L144.67-47.31L144.67-47.31Q140.77-47.31 138.32-48.97L138.32-48.97L138.32-48.97Q135.87-50.63 135.87-53.87ZM181.19-23.32L181.19-23.32L181.19-23.32Q184.18-28.64 184.18-34.03L184.18-34.03L184.18-34.03Q184.18-37.60 181.60-37.60L181.60-37.60L181.60-37.60Q179.61-37.60 177.54-34.20L177.54-34.20L177.54-34.20Q175.38-30.79 174.72-26.39L174.72-26.39L170.40 0L153.22 1.66L161.68-42.33L175.38-43.99L173.89-35.61L173.89-35.61Q177.95-43.99 187.08-43.99L187.08-43.99L187.08-43.99Q191.90-43.99 194.51-41.50L194.51-41.50L194.51-41.50Q197.13-39.01 197.13-33.91L197.13-33.91L197.13-33.91Q197.13-28.80 193.76-25.56L193.76-25.56L193.76-25.56Q190.40-22.33 184.68-22.33L184.68-22.33L184.68-22.33Q182.19-22.33 181.19-23.32ZM225.10-3.49L225.10-3.49L225.10-3.49Q221.11 1.66 211.24 1.66L211.24 1.66L211.24 1.66Q206.09 1.66 202.35-1.45L202.35-1.45L202.35-1.45Q198.62-4.57 198.62-9.05L198.62-9.05L198.62-9.05Q198.62-11.54 198.87-12.78L198.87-12.78L204.43-42.33L221.28-43.99L215.22-11.95L215.22-11.95Q214.89-10.13 214.89-9.05L214.89-9.05L214.89-9.05Q214.89-4.23 217.79-4.23L217.79-4.23L217.79-4.23Q221.03-4.23 223.35-8.63L223.35-8.63L223.35-8.63Q224.10-10.04 224.43-11.87L224.43-11.87L230.32-42.33L246.68-43.99L240.53-11.62L240.53-11.62Q240.28-10.38 240.28-9.05L240.28-9.05L240.28-9.05Q240.28-7.72 241.03-6.27L241.03-6.27L241.03-6.27Q241.78-4.81 244.19-4.48L244.19-4.48L244.19-4.48Q243.69-2.49 241.94-1.16L241.94-1.16L241.94-1.16Q238.29 1.66 234.35 1.66L234.35 1.66L234.35 1.66Q230.41 1.66 228.08 0.25L228.08 0.25L228.08 0.25Q225.76-1.16 225.10-3.49ZM271.00-4.57L271.00-4.57L271.00-4.57Q268.42 1.66 260.21 1.66L260.21 1.66L260.21 1.66Q256.06 1.66 253.40-1.25L253.40-1.25L253.40-1.25Q251.24-3.65 251.24-6.39L251.24-6.39L251.24-6.39Q251.24-12.62 254.15-26.23L254.15-26.23L260.21-58.10L277.05-59.76L269.00-17.76L269.00-17.76Q267.59-11.62 267.59-9.46L267.59-9.46L267.59-9.46Q267.59-4.73 271.00-4.57ZM290.92-38.26L282.12-38.26L282.12-38.26Q285.19-48.89 285.35-60.09L285.35-60.09L287.76-60.42L287.76-60.42Q289.01-60.59 289.92-60.59L289.92-60.59L289.92-60.59Q293.57-60.59 295.56-58.81L295.56-58.81L295.56-58.81Q297.56-57.02 297.56-53.87L297.56-53.87L297.56-53.87Q297.56-50.55 296.06-46.90L296.06-46.90L296.06-46.90Q293.41-40.42 290.92-38.26L290.92-38.26ZM321.38-29.13L321.38-29.13L321.38-29.13Q322.54-32.20 322.54-34.86L322.54-34.86L322.54-34.86Q322.54-39.76 318.55-39.76L318.55-39.76L318.55-39.76Q316.48-39.76 314.78-37.89L314.78-37.89L314.78-37.89Q313.08-36.02 313.08-33.70L313.08-33.70L313.08-33.70Q313.08-32.04 314.40-30.71L314.40-30.71L314.40-30.71Q316.31-28.88 321.21-25.90L321.21-25.90L321.21-25.90Q326.11-22.91 327.97-20.46L327.97-20.46L327.97-20.46Q329.84-18.01 329.84-14.65L329.84-14.65L329.84-14.65Q329.84-11.29 328.22-8.22L328.22-8.22L328.22-8.22Q326.61-5.15 323.70-2.99L323.70-2.99L323.70-2.99Q317.48 1.66 307.52 1.66L307.52 1.66L307.52 1.66Q302.12 1.66 297.97-1.16L297.97-1.16L297.97-1.16Q293.82-3.90 293.82-7.14L293.82-7.14L293.82-7.14Q293.82-10.38 296.19-12.28L296.19-12.28L296.19-12.28Q298.55-14.19 302.04-14.19L302.04-14.19L302.04-14.19Q305.52-14.19 307.68-12.87L307.68-12.87L307.68-12.87Q306.60-10.13 306.60-8.30L306.60-8.30L306.60-8.30Q306.60-2.82 311.25-2.82L311.25-2.82L311.25-2.82Q313.24-2.82 314.57-4.07L314.57-4.07L314.57-4.07Q315.90-5.31 315.90-7.47L315.90-7.47L315.90-7.47Q315.90-11.70 308.76-16.19L308.76-16.19L308.76-16.19Q302.95-20.00 301.62-21.50L301.62-21.50L301.62-21.50Q299.38-24.15 299.38-27.47L299.38-27.47L299.38-27.47Q299.38-30.79 300.96-33.95L300.96-33.95L300.96-33.95Q302.54-37.10 305.44-39.34L305.44-39.34L305.44-39.34Q311.50-43.99 322.04-43.99L322.04-43.99L322.04-43.99Q327.44-43.99 330.63-41.83L330.63-41.83L330.63-41.83Q333.83-39.67 333.83-36.02L333.83-36.02L333.83-36.02Q333.83-32.37 331.63-30.30L331.63-30.30L331.63-30.30Q329.43-28.22 325.44-28.22L325.44-28.22L325.44-28.22Q322.70-28.22 321.38-29.13ZM386.45-55.36L386.45-55.36L386.45-55.36Q406.78-55.36 406.78-41.00L406.78-41.00L406.78-41.00Q406.78-33.12 401.72-28.39L401.72-28.39L401.72-28.39Q396.74-23.66 388.03-23.66L388.03-23.66L388.03-23.66Q383.96-23.66 380.80-25.98L380.80-25.98L380.80-25.98Q379.31-26.98 378.31-28.30L378.31-28.30L378.31-28.30Q384.37-28.30 387.57-32.00L387.57-32.00L387.57-32.00Q390.76-35.69 390.76-42.91L390.76-42.91L390.76-42.91Q390.76-50.13 383.63-50.13L383.63-50.13L381.63-50.13L381.63-50.13Q381.14-50.13 380.72-50.05L380.72-50.05L371.18 0L353.17 0L363.37-54.37L363.37-54.37Q372.26-55.20 377.40-55.28L377.40-55.28L377.40-55.28Q382.55-55.36 386.45-55.36ZM425.29 1.66L425.29 1.66L425.29 1.66Q407.03 1.66 407.03-15.52L407.03-15.52L407.03-15.52Q407.03-27.72 413.76-35.61L413.76-35.61L413.76-35.61Q420.89-43.99 433.26-43.99L433.26-43.99L433.26-43.99Q442.22-43.99 446.79-39.84L446.79-39.84L446.79-39.84Q451.35-35.69 451.35-26.98L451.35-26.98L451.35-26.98Q451.35-13.70 444.22-5.98L444.22-5.98L444.22-5.98Q437.24 1.66 425.29 1.66ZM427.45-34.45L427.45-34.45L427.45-34.45Q426.45-32.20 425.67-28.84L425.67-28.84L425.67-28.84Q424.88-25.48 423.88-20.17L423.88-20.17L423.88-20.17Q422.89-14.86 422.89-8.30L422.89-8.30L422.89-8.30Q422.89-6.14 423.59-4.73L423.59-4.73L423.59-4.73Q424.30-3.32 426.21-3.32L426.21-3.32L426.21-3.32Q428.11-3.32 429.32-4.23L429.32-4.23L429.32-4.23Q430.52-5.15 431.43-7.30L431.43-7.30L431.43-7.30Q433.09-11.12 434.42-18.22L434.42-18.22L434.42-18.22Q435.75-25.32 435.87-28.39L435.87-28.39L435.87-28.39Q436.00-31.46 436.00-33.74L436.00-33.74L436.00-33.74Q436.00-36.02 435.34-37.52L435.34-37.52L435.34-37.52Q434.67-39.01 432.80-39.01L432.80-39.01L432.80-39.01Q430.94-39.01 429.69-37.85L429.69-37.85L429.69-37.85Q428.45-36.69 427.45-34.45ZM482.23-23.32L482.23-23.32L482.23-23.32Q485.22-28.64 485.22-34.03L485.22-34.03L485.22-34.03Q485.22-37.60 482.65-37.60L482.65-37.60L482.65-37.60Q480.65-37.60 478.58-34.20L478.58-34.20L478.58-34.20Q476.42-30.79 475.76-26.39L475.76-26.39L471.44 0L454.26 1.66L462.73-42.33L476.42-43.99L474.93-35.61L474.93-35.61Q478.99-43.99 488.12-43.99L488.12-43.99L488.12-43.99Q492.94-43.99 495.55-41.50L495.55-41.50L495.55-41.50Q498.17-39.01 498.17-33.91L498.17-33.91L498.17-33.91Q498.17-28.80 494.80-25.56L494.80-25.56L494.80-25.56Q491.44-22.33 485.72-22.33L485.72-22.33L485.72-22.33Q483.23-22.33 482.23-23.32ZM500.82-8.30L500.82-8.30L500.82-8.30Q500.82-10.54 501.98-16.19L501.98-16.19L506.38-38.59L501.49-38.59L501.82-41.09L501.82-41.09Q511.78-44.07 521.41-51.38L521.41-51.38L525.39-51.38L523.40-42.33L529.87-42.33L529.13-38.59L522.73-38.59L518.50-16.19L518.50-16.19Q517.42-11.04 517.42-9.30L517.42-9.30L517.42-9.30Q517.42-5.31 520.91-4.48L520.91-4.48L520.91-4.48Q520.08-1.66 517.09 0L517.09 0L517.09 0Q514.10 1.66 509.87 1.66L509.87 1.66L509.87 1.66Q505.64 1.66 503.23-1.00L503.23-1.00L503.23-1.00Q500.82-3.65 500.82-8.30ZM561.83-48.14L561.83-48.14L561.83-48.14Q562.99-50.13 562.99-52.29L562.99-52.29L562.99-52.29Q562.99-56.11 560.67-56.11L560.67-56.11L560.67-56.11Q557.10-56.11 555.60-48.80L555.60-48.80L554.36-42.33L561.91-42.33L561.41-38.59L553.61-38.59L546.14 0L529.37 1.66L537.34-38.59L531.45-38.59L532.20-42.33L538.01-42.33L539.75-48.89L539.75-48.89Q541.24-54.95 547.63-57.77L547.63-57.77L547.63-57.77Q552.28-59.76 560.08-59.76L560.08-59.76L560.08-59.76Q567.89-59.76 571.37-57.77L571.37-57.77L571.37-57.77Q574.86-55.78 574.86-53.12L574.86-53.12L574.86-53.12Q574.86-50.46 572.78-48.80L572.78-48.80L572.78-48.80Q570.71-47.14 568.38-47.14L568.38-47.14L568.38-47.14Q563.82-47.14 561.83-48.14ZM578.59 1.66L578.59 1.66L578.59 1.66Q560.33 1.66 560.33-15.52L560.33-15.52L560.33-15.52Q560.33-27.72 567.06-35.61L567.06-35.61L567.06-35.61Q574.19-43.99 586.56-43.99L586.56-43.99L586.56-43.99Q595.53-43.99 600.09-39.84L600.09-39.84L600.09-39.84Q604.66-35.69 604.66-26.98L604.66-26.98L604.66-26.98Q604.66-13.70 597.52-5.98L597.52-5.98L597.52-5.98Q590.55 1.66 578.59 1.66ZM580.75-34.45L580.75-34.45L580.75-34.45Q579.76-32.20 578.97-28.84L578.97-28.84L578.97-28.84Q578.18-25.48 577.18-20.17L577.18-20.17L577.18-20.17Q576.19-14.86 576.19-8.30L576.19-8.30L576.19-8.30Q576.19-6.14 576.89-4.73L576.89-4.73L576.89-4.73Q577.60-3.32 579.51-3.32L579.51-3.32L579.51-3.32Q581.42-3.32 582.62-4.23L582.62-4.23L582.62-4.23Q583.82-5.15 584.74-7.30L584.74-7.30L584.74-7.30Q586.40-11.12 587.72-18.22L587.72-18.22L587.72-18.22Q589.05-25.32 589.18-28.39L589.18-28.39L589.18-28.39Q589.30-31.46 589.30-33.74L589.30-33.74L589.30-33.74Q589.30-36.02 588.64-37.52L588.64-37.52L588.64-37.52Q587.97-39.01 586.10-39.01L586.10-39.01L586.10-39.01Q584.24-39.01 582.99-37.85L582.99-37.85L582.99-37.85Q581.75-36.69 580.75-34.45ZM629.39-4.57L629.39-4.57L629.39-4.57Q626.82 1.66 618.60 1.66L618.60 1.66L618.60 1.66Q614.45 1.66 611.79-1.25L611.79-1.25L611.79-1.25Q609.64-3.65 609.64-6.39L609.64-6.39L609.64-6.39Q609.64-12.62 612.54-26.23L612.54-26.23L618.60-58.10L635.45-59.76L627.40-17.76L627.40-17.76Q625.99-11.62 625.99-9.46L625.99-9.46L625.99-9.46Q625.99-4.73 629.39-4.57ZM656.36-4.57L656.36-4.57L656.36-4.57Q653.79 1.66 645.57 1.66L645.57 1.66L645.57 1.66Q641.34 1.66 638.69-1.25L638.69-1.25L638.69-1.25Q636.44-3.82 636.44-6.39L636.44-6.39L636.44-6.39Q636.44-13.11 639.52-26.23L639.52-26.23L642.59-42.33L659.44-43.99L654.37-17.76L654.37-17.76Q652.96-11.62 652.96-9.46L652.96-9.46L652.96-9.46Q652.96-4.73 656.36-4.57ZM644.08-53.87L644.08-53.87L644.08-53.87Q644.08-57.10 646.78-58.85L646.78-58.85L646.78-58.85Q649.48-60.59 653.38-60.59L653.38-60.59L653.38-60.59Q657.28-60.59 659.64-58.85L659.64-58.85L659.64-58.85Q662.01-57.10 662.01-53.87L662.01-53.87L662.01-53.87Q662.01-50.63 659.39-48.97L659.39-48.97L659.39-48.97Q656.78-47.31 652.88-47.31L652.88-47.31L652.88-47.31Q648.98-47.31 646.53-48.97L646.53-48.97L646.53-48.97Q644.08-50.63 644.08-53.87ZM681.51 1.66L681.51 1.66L681.51 1.66Q663.25 1.66 663.25-15.52L663.25-15.52L663.25-15.52Q663.25-27.72 669.98-35.61L669.98-35.61L669.98-35.61Q677.11-43.99 689.48-43.99L689.48-43.99L689.48-43.99Q698.45-43.99 703.01-39.84L703.01-39.84L703.01-39.84Q707.58-35.69 707.58-26.98L707.58-26.98L707.58-26.98Q707.58-13.70 700.44-5.98L700.44-5.98L700.44-5.98Q693.47 1.66 681.51 1.66ZM683.67-34.45L683.67-34.45L683.67-34.45Q682.68-32.20 681.89-28.84L681.89-28.84L681.89-28.84Q681.10-25.48 680.10-20.17L680.10-20.17L680.10-20.17Q679.11-14.86 679.11-8.30L679.11-8.30L679.11-8.30Q679.11-6.14 679.81-4.73L679.81-4.73L679.81-4.73Q680.52-3.32 682.43-3.32L682.43-3.32L682.43-3.32Q684.34-3.32 685.54-4.23L685.54-4.23L685.54-4.23Q686.74-5.15 687.66-7.30L687.66-7.30L687.66-7.30Q689.32-11.12 690.64-18.22L690.64-18.22L690.64-18.22Q691.97-25.32 692.10-28.39L692.10-28.39L692.10-28.39Q692.22-31.46 692.22-33.74L692.22-33.74L692.22-33.74Q692.22-36.02 691.56-37.52L691.56-37.52L691.56-37.52Q690.89-39.01 689.02-39.01L689.02-39.01L689.02-39.01Q687.16-39.01 685.91-37.85L685.91-37.85L685.91-37.85Q684.67-36.69 683.67-34.45Z" fill="#ffc800"></path></g></g><style>text {
  font-size: 64px;
  font-family: Arial Black;
  dominant-baseline: central;
  text-anchor: middle;
}</style></svg>